<svg width="233" height="72" viewBox="0 0 233 72" fill="none" xmlns="http://www.w3.org/2000/svg">
<g clip-path="url(#clip0_93_643)">
<path d="M22.9218 8.43637C11.2729 13.2788 1.30741 17.4566 0.903403 17.7889C0.230056 18.2636 0.095387 22.299 0.499395 36.4465L0.903403 54.5344L9.72424 58.0475C14.5723 59.9465 24.5379 63.9344 31.9447 66.8778C39.2842 69.8212 45.5463 72.2424 45.883 72.2424C46.287 72.2424 50.5291 70.5808 55.4445 68.4919C60.3599 66.4505 69.1808 62.795 75.1062 60.3737C81.0317 57.9051 86.8898 55.4838 88.1691 54.8667C90.3238 53.8222 90.3238 53.7748 88.9771 53.3C87.4284 52.6828 87.1591 52.7778 80.8297 55.3889C78.8096 56.2434 73.0188 58.6647 68.0361 60.7535C63.0533 62.8424 55.9832 65.7384 52.4144 67.2101L45.8156 69.8687L39.6208 67.3525C36.1868 65.9283 29.1166 63.1273 23.9319 61.1333C18.7471 59.0919 12.2156 56.4808 9.38757 55.3414L4.27014 53.2525L3.73146 36.3515C3.46212 26.999 3.52946 19.2606 3.79879 19.0707C4.40481 18.6909 28.8473 8.43637 39.8902 4.02122L45.0076 1.93233L65.9487 10.2879C85.1391 17.9313 87.0244 18.596 88.2365 17.9788C89.9872 17.1243 89.9872 17.1243 80.1563 13.2788C75.9142 11.5697 66.42 7.8192 59.1479 4.92324C51.8084 1.97981 45.479 -0.393929 45.0076 -0.393929C44.5363 -0.346454 34.5707 3.59395 22.9218 8.43637Z" fill="white"/>
<path d="M32.012 8.76869C24.9419 11.7121 16.121 15.3677 12.283 16.9343L5.41483 19.7354L5.54949 36.1141L5.7515 52.4929L9.45491 53.9646C11.4749 54.7717 20.4978 58.3798 29.4533 61.9404L45.7483 68.4919L64.4673 60.801C81.705 53.7273 87.3611 51.1636 83.9944 52.0182C83.321 52.1606 75.1062 55.4838 65.814 59.3293C56.4545 63.2222 48.1723 66.6404 47.297 66.9727C45.5463 67.6374 46.2196 67.8747 22.1812 58.2848C7.23286 52.303 6.89619 52.1606 6.49218 50.4515C6.29018 49.502 6.08817 42.3333 6.08817 34.4525V20.1626L16.7271 15.7475C22.5178 13.3263 31.0693 9.76566 35.7154 7.86667C40.2942 5.9202 44.5363 4.35353 45.0076 4.35353C45.883 4.35353 57.9359 9.05353 76.7896 16.6495C80.6277 18.2162 83.9271 19.403 84.1291 19.2606C84.5331 18.9758 85.1391 19.2606 68.7094 12.6616C60.3599 9.33838 51.8084 5.9202 49.6537 5.01818C47.499 4.11616 45.479 3.40404 45.2096 3.40404C44.9403 3.40404 39.0148 5.82525 32.012 8.76869Z" fill="white"/>
<path d="M43.5263 22.5838C42.5836 24.8626 38.4088 29.3727 36.3888 30.2273C34.7728 30.9394 33.022 34.3101 33.022 36.7788C33.022 40.0545 34.9074 42.096 39.4188 43.8525C42.9876 45.2293 44.9403 44.9444 42.9202 43.3778C41.1022 41.9535 40.2942 39.8172 41.0349 38.3929C41.6409 37.3485 42.1796 37.1111 44.1996 37.1111C46.3543 37.1111 46.691 36.9212 47.6337 35.2121C48.913 32.9333 49.8557 33.2182 51.6064 36.399C52.8858 38.8202 52.5491 40.3394 50.1924 42.8556C48.307 44.897 48.5764 45.2768 51.4044 44.6121C54.0305 43.9949 56.9932 42.096 58.4072 40.2444C60.0906 37.9657 59.3499 32.2212 56.9259 29.0879C54.7038 26.2394 46.8257 20.0202 45.479 20.0202C44.9403 20.0202 44.1323 21.1596 43.5263 22.5838ZM49.2497 23.9131C58.4746 30.6071 60.6966 38.203 54.6365 42.0485C52.9531 43.1404 52.1451 42.8081 53.1551 41.4788C54.1651 40.1495 54.0978 37.396 53.0204 35.5444C52.0104 33.8828 48.711 30.9394 47.8357 30.9394C47.5663 30.9394 47.095 31.8889 46.893 33.0283C46.3543 35.4495 45.1423 36.399 43.1222 35.9242C42.3142 35.7343 41.3042 35.8768 40.7655 36.1616C39.4188 36.9687 38.8128 39.6747 39.6208 41.3838C40.4289 42.998 40.0249 43.1404 38.0721 41.9535C32.5507 38.6778 33.1567 34.3101 39.6882 29.2303C41.5736 27.8061 43.4589 25.6697 44.1996 24.2929C44.873 23.0111 45.681 21.9192 45.9503 21.9192C46.2196 21.9192 47.7683 22.8212 49.2497 23.9131Z" fill="white"/>
<path d="M83.9944 30.6071C82.9844 31.0818 82.8497 31.8889 82.9844 36.1616L83.1864 41.1465H89.5832H95.98L96.182 39.5798C96.3166 38.4404 96.1146 38.0606 95.3066 38.0606C94.7679 38.0606 94.0946 38.3929 93.8926 38.7727C93.5559 39.2949 92.4112 39.4848 89.5158 39.4848H85.5431V35.9242V32.3636H89.5832C91.8052 32.3636 93.6233 32.5535 93.6233 32.8384C93.6233 33.0758 94.2293 33.3131 94.97 33.3131C96.788 33.3131 96.788 31.1768 95.0373 30.4646C93.1519 29.8 85.3411 29.8475 83.9944 30.6071Z" fill="white"/>
<path d="M105.272 30.2747C104.801 30.4172 104.397 30.9394 104.397 31.4616C104.397 32.2212 104.868 32.3636 107.09 32.3636C110.12 32.3636 109.986 32.1263 110.053 38.5353C110.12 40.8616 110.255 41.1465 111.669 41.2889C113.083 41.4313 113.15 41.3364 113.15 36.9212V32.3636H115.911C118.335 32.3636 118.604 32.2687 118.402 31.2717C118.2 30.2747 117.864 30.2273 112.14 30.1323C108.841 30.0848 105.676 30.1798 105.272 30.2747Z" fill="white"/>
<path d="M121.432 30.2748C120.826 30.4647 120.557 32.0788 120.557 35.9717C120.557 41.004 120.624 41.3838 121.836 41.3838C122.847 41.3838 123.251 41.004 123.385 39.8172L123.587 38.298L128.301 38.1556C130.859 38.0606 133.351 37.7758 133.822 37.4909C134.832 36.9212 135.034 32.0313 134.024 30.9394C133.553 30.4172 131.937 30.1798 127.829 30.1323C124.732 30.0849 121.836 30.1323 121.432 30.2748ZM131.869 34.1202L131.667 35.9242H127.627H123.587L123.385 34.1202L123.183 32.3636H127.627H132.071L131.869 34.1202Z" fill="white"/>
<path d="M142.104 30.3222C141.566 30.4647 140.084 31.2242 138.94 32.0313C136.785 33.4556 136.717 33.598 136.717 37.4434C136.717 41.0515 136.852 41.3838 138.064 41.3838C139.142 41.3838 139.411 41.0515 139.411 39.7222V38.0606H143.788H148.164V39.7222C148.164 41.099 148.434 41.3838 149.511 41.3838C150.858 41.3838 150.925 41.1465 150.723 35.7818L150.521 30.2273L146.818 30.1323C144.798 30.0849 142.643 30.1798 142.104 30.3222ZM148.03 34.1202L147.828 35.9242H143.855C139.209 35.9242 138.536 35.3071 141.027 33.5505C142.306 32.6485 143.451 32.3636 145.471 32.3636H148.232L148.03 34.1202Z" fill="white"/>
<path d="M171.597 30.5121C170.587 30.8919 170.385 31.699 170.385 35.6394C170.385 39.0576 170.654 40.4818 171.327 40.8616C171.933 41.2414 174.358 41.3838 177.926 41.2889L183.515 41.1465L183.717 39.5798C183.852 38.4404 183.65 38.0606 182.842 38.0606C182.303 38.0606 181.63 38.3929 181.428 38.7727C181.091 39.295 179.946 39.4849 177.051 39.4849H173.078V35.9243V32.3636H177.051C179.273 32.3636 181.293 32.5535 181.495 32.8384C181.697 33.0758 182.37 33.3131 182.909 33.3131C184.323 33.3131 184.054 31.0818 182.572 30.4647C180.889 29.8475 173.078 29.8475 171.597 30.5121Z" fill="white"/>
<path d="M187.016 30.3222C186.747 30.4647 186.545 33.0283 186.545 36.0192C186.545 41.0515 186.612 41.3838 187.892 41.3838C189.171 41.3838 189.238 41.0515 189.238 36.8737V32.3636H194.625C199.473 32.3636 200.012 32.2687 200.012 31.4616C200.012 30.9394 199.406 30.4647 198.531 30.2748C196.443 29.895 187.555 29.895 187.016 30.3222Z" fill="white"/>
<path d="M219.741 30.5121C217.721 31.0344 217.586 33.3131 219.539 33.3131C220.28 33.3131 220.886 33.0758 220.886 32.8384C220.886 32.5535 222.704 32.3636 224.926 32.3636C228.764 32.3636 228.966 32.4111 228.966 33.5505C228.966 34.4051 228.629 34.7374 227.687 34.7374C225.465 34.7374 224.253 35.2596 224.253 36.2091C224.253 36.9212 224.724 37.1111 226.609 37.1111C228.697 37.1111 228.966 37.2535 228.966 38.298C228.966 39.4374 228.764 39.4849 225.195 39.4849C222.704 39.4849 221.088 39.2475 220.414 38.7253C219.068 37.8232 217.99 38.4879 218.327 40.0071C218.529 41.099 218.798 41.1465 224.522 41.2889C228.629 41.3838 230.717 41.2414 231.053 40.8616C231.727 40.0546 231.659 30.9869 230.919 30.702C229.841 30.2273 221.29 30.0849 219.741 30.5121Z" fill="white"/>
<path d="M153.551 35.9242C153.551 41.0515 153.618 41.3838 154.898 41.3838C156.042 41.3838 156.245 41.0515 156.245 39.2475V37.1111H160.285C164.325 37.1111 164.863 37.3485 164.392 39.2C164.19 40.0545 165.133 41.3838 166.008 41.3838C167.287 41.3838 167.489 40.6717 167.624 35.3071C167.759 30.4172 167.759 30.3697 166.21 30.5596C164.998 30.6545 164.661 31.0343 164.594 32.1263C164.594 32.8859 164.527 33.7879 164.459 34.0727C164.257 34.9748 162.305 35.2596 159.14 34.9273L156.245 34.6424V32.5535C156.245 30.797 156.042 30.4647 154.898 30.4647C153.618 30.4647 153.551 30.797 153.551 35.9242Z" fill="white"/>
<path d="M203.446 32.1737C201.359 33.7879 201.291 34.0253 201.493 37.4909C201.628 40.4343 201.897 41.1465 202.773 41.2889C203.581 41.3838 203.985 40.9566 204.321 39.7697L204.793 38.0606H208.766H212.806V39.7222C212.806 41.0515 213.075 41.3838 214.152 41.3838C215.432 41.3838 215.499 41.0515 215.499 35.9242V30.4647H210.516C205.668 30.4647 205.466 30.5121 203.446 32.1737ZM212.806 34.2626V36.1616H208.833C206.611 36.1616 204.658 35.9717 204.456 35.7343C204.187 35.497 204.86 34.6424 205.803 33.8354C207.217 32.6485 208.025 32.3636 210.18 32.3636C212.806 32.3636 212.806 32.3636 212.806 34.2626Z" fill="white"/>
<path d="M98.606 35.4495C97.9327 36.5889 99.2121 37.2061 101.771 37.0162C103.521 36.9212 104.06 36.6364 104.06 35.9242C104.06 35.1646 103.521 34.9273 101.501 34.8323C99.6834 34.7374 98.8754 34.8798 98.606 35.4495Z" fill="white"/>
<path d="M40.1595 47.5081C39.6208 48.0778 42.1122 48.5051 46.1523 48.5051C48.0377 48.5051 50.1924 48.3626 51.0004 48.2202C54.0305 47.6505 51.6738 47.0808 46.1523 47.0808C43.0549 47.0808 40.3615 47.2707 40.1595 47.5081Z" fill="white"/>
<path d="M36.3888 50.404C36.3888 50.6889 39.9575 50.8788 45.8156 50.8788C51.6738 50.8788 55.2425 50.6889 55.2425 50.404C55.2425 50.1192 51.6738 49.9293 45.8156 49.9293C39.9575 49.9293 36.3888 50.1192 36.3888 50.404Z" fill="white"/>
</g>
<defs>
<clipPath id="clip0_93_643">
<rect width="233" height="72" fill="white"/>
</clipPath>
</defs>
</svg>
